<?xml version="1.0" encoding="UTF-8"?>
<svg id="Layer_1" data-name="Layer 1" xmlns="http://www.w3.org/2000/svg" viewBox="0 0 885.27 885.27">
  <defs>
    <style>
      .cls-1 {
        fill: #000;
        stroke-width: 0px;
      }
    </style>
  </defs>
  <path class="cls-1" d="M834.4,575.65c-8.91-5.65-21.35,2.26-31.4,5.38-4.23,1.4-6.96,4.74-8.34,8.57-1.67,3.72-2.25,7.97-.26,11.98,2.28,4.65,4.47,10.62,7.12,15.68,2.65,5.05,6,9.31,11.15,10.44,10.12,2.33,20.1-7.16,25.54-19.88,2.56-6.38,3.85-13.05,3.4-18.77-.59-5.79-2.91-10.6-7.21-13.39Z"/>
  <path class="cls-1" d="M615.29,802.5c-5.09-2.78-11-4.91-15.65-7.22-3.98-2-8.21-1.41-11.96.15-3.84,1.37-7.21,4.1-8.63,8.35-3.2,9.95-11.16,22.41-5.56,31.35,2.77,4.32,7.56,6.63,13.33,7.26,5.76.59,12.39-.78,18.8-3.31,12.73-5.32,22.31-15.27,20.04-25.39-1.11-5.15-5.34-8.49-10.38-11.2Z"/>
  <path class="cls-1" d="M295.67,794.66c-3.72-1.67-7.97-2.25-11.98-.26-4.65,2.28-10.62,4.47-15.67,7.12-5.05,2.65-9.31,6-10.44,11.15-2.33,10.12,7.16,20.1,19.88,25.54,6.38,2.56,13.05,3.85,18.77,3.4,5.78-.59,10.6-2.91,13.39-7.21,5.65-8.91-2.26-21.35-5.38-31.4-1.4-4.23-4.74-6.96-8.57-8.34Z"/>
  <path class="cls-1" d="M81.49,579.05c-9.95-3.2-22.41-11.16-31.35-5.56-4.32,2.77-6.63,7.55-7.26,13.33-.59,5.76.78,12.39,3.31,18.8,5.32,12.73,15.27,22.31,25.39,20.04,5.16-1.11,8.5-5.34,11.2-10.38,2.78-5.09,4.91-11,7.22-15.65,2-3.98,1.41-8.21-.15-11.96-1.37-3.84-4.1-7.21-8.35-8.63Z"/>
  <path class="cls-1" d="M50.87,309.62c8.91,5.65,21.35-2.26,31.4-5.38,4.23-1.4,6.96-4.74,8.34-8.57,1.67-3.72,2.25-7.97.26-11.98-2.28-4.65-4.47-10.62-7.12-15.68-2.65-5.05-6-9.31-11.15-10.44-10.12-2.33-20.1,7.16-25.54,19.88-2.56,6.38-3.85,13.05-3.4,18.77.59,5.78,2.91,10.6,7.21,13.39Z"/>
  <path class="cls-1" d="M269.99,82.77c5.09,2.78,11,4.91,15.64,7.22,3.98,2,8.21,1.41,11.96-.15,3.84-1.37,7.21-4.1,8.63-8.35,3.2-9.95,11.16-22.41,5.56-31.35-2.77-4.32-7.56-6.63-13.33-7.26-5.76-.59-12.39.78-18.8,3.31-12.73,5.32-22.31,15.27-20.04,25.38,1.11,5.15,5.34,8.49,10.38,11.2Z"/>
  <path class="cls-1" d="M589.6,90.61c3.72,1.67,7.97,2.25,11.98.26,4.65-2.28,10.62-4.47,15.68-7.12,5.05-2.66,9.31-6,10.44-11.15,2.33-10.12-7.16-20.1-19.88-25.54-6.38-2.56-13.05-3.85-18.77-3.4-5.78.59-10.6,2.91-13.39,7.21-5.65,8.91,2.26,21.35,5.38,31.4,1.4,4.23,4.74,6.96,8.57,8.34Z"/>
  <path class="cls-1" d="M803.78,306.23c9.95,3.2,22.41,11.16,31.35,5.56,4.32-2.77,6.63-7.56,7.26-13.33.59-5.76-.78-12.39-3.31-18.8-5.32-12.73-15.27-22.31-25.38-20.04-5.16,1.11-8.5,5.34-11.2,10.38-2.78,5.09-4.91,11-7.22,15.65-2,3.98-1.41,8.21.15,11.96,1.37,3.84,4.1,7.21,8.35,8.63Z"/>
  <path class="cls-1" d="M885.27,442.64c-.07-3.98-1.12-7.95-3.1-10.33-15.03-18.39-28.5-40.94-44.19-59.87-7.66-9.51-16.25-18.02-25.02-24.82-9.16-6.71-18.54-11.72-28.88-14.08-17.06-3.87-31.74.54-45.14,7.92-13.38,7.45-25.43,17.83-37.27,27.75-5.59-19.61-13.23-38.68-23.2-56.52,15.27-1.21,31.2-2.34,46.04-6.51,14.72-4.18,28.3-11.41,37.54-26.07,11.49-17.93,13.15-41.03,11.05-65.55-2.03-24.57-8.52-49.84-10.68-73.65-.34-3.72-3.29-8.1-6.91-11.15l.1-.1c-2.87-2.78-6.42-4.85-9.51-5.14-11.82-1.24-24.24-3.28-36.48-5.62-12.47-2.07-24.84-4.36-37.12-5.45-24.46-2.31-47.64-.65-65.6,10.67-14.75,9.23-22.02,22.7-26.3,37.43-4.26,14.83-5.41,30.62-6.76,45.99-17.77-10.07-36.77-17.89-56.37-23.53,10-11.84,20.41-23.7,27.96-37.12,7.46-13.37,11.95-28.02,8.16-45.06-2.27-10.48-7.26-19.75-13.92-28.96-3.35-4.53-7.19-8.74-11.33-12.99-4.13-4.3-8.63-8.31-13.36-12.18-9.42-8.01-19.77-15.12-30.02-22.56-10.27-7.02-20.47-14.47-29.62-21.96-2.86-2.39-8.02-3.41-12.73-3.01v-.15c-3.98.07-7.95,1.12-10.33,3.1-18.39,15.03-40.94,28.5-59.87,44.19-9.51,7.66-18.02,16.25-24.82,25.02-6.71,9.16-11.72,18.54-14.08,28.88-3.87,17.05.54,31.74,7.92,45.14,7.45,13.38,17.83,25.43,27.75,37.27-19.61,5.59-38.68,13.23-56.52,23.2-1.21-15.27-2.34-31.2-6.51-46.04-4.18-14.71-11.41-28.3-26.07-37.54-17.93-11.49-41.03-13.15-65.55-11.05-24.57,2.03-49.84,8.52-73.65,10.68-3.72.34-8.1,3.29-11.15,6.91l18.15,18.15.59-2.66c16.55-2.77,33.06-6.95,49.53-9.52,8.21-1.32,16.29-2.35,24.33-2.58,3.99-.15,7.92-.18,11.78-.02,3.93.25,7.77.67,11.53,1.29,11.11,1.76,19.51,6.1,25.83,11.71,6.31,5.62,10.6,12.59,13.71,20.28,3.1,7.69,5.04,16.09,6.5,24.66,1.46,8.59,2.59,17.58,3.66,26.18-2.81,1.71-5.47,3.66-8.15,5.57-2.66,1.94-5.43,3.73-7.97,5.83-4.54-11.98-11.78-22.9-23.8-28.95-6.72-3.35-15.3-5.24-23.62-4.21-4.17.48-8.44,1.48-12.39,3.24-3.89,1.81-7.57,4.26-10.79,7.34l-1.27,1.32,14.21,14.21c.39-.43.71-.87,1.15-1.29,4.2-4,8.69-5.77,13.07-5.81,4.47.06,8.77,1.76,12.62,4.45,7.69,5.37,13.67,14.56,15.85,21.99v.03c-4.22,3.53-8.01,7.54-12.06,11.26-3.41,3.67-6.99,7.19-10.29,10.95h-.02c-7.42-2.22-16.58-8.23-21.92-15.95-2.65-3.85-4.41-8.22-4.35-12.62.07-4.37,1.84-8.89,5.86-13.1l-14.16-14.16c-6.17,6.43-9.85,14.66-10.67,23.15-1.03,8.34.7,16.84,4.08,23.64,6.01,12.08,16.89,19.37,28.82,23.96-2.09,2.55-4.01,5.22-5.89,7.92-1.86,2.72-3.93,5.29-5.63,8.11-8.6-1.13-17.48-2.23-26.17-3.8-8.57-1.5-16.93-3.47-24.6-6.61-7.66-3.15-14.61-7.47-20.2-13.82-2.79-3.18-5.26-6.87-7.26-11.18-1.93-4.26-3.4-9.13-4.31-14.73-1.3-7.6-1.49-15.33-1.15-23.32.23-8.07,1.43-16.06,2.7-24.32,1.26-8.28,3.19-16.35,4.8-24.73,1.77-8.23,3.62-16.42,4.97-24.77l-17.2-17.2c-2.78,2.87-4.85,6.42-5.14,9.51-1.24,11.82-3.28,24.24-5.62,36.48-2.07,12.47-4.36,24.84-5.45,37.12-2.31,24.46-.65,47.64,10.67,65.6,9.23,14.75,22.71,22.02,37.43,26.3,14.83,4.26,30.62,5.41,45.99,6.76-10.07,17.77-17.89,36.77-23.53,56.37-11.84-10-23.7-20.41-37.12-27.96-13.37-7.46-28.02-11.95-45.06-8.16-10.48,2.27-19.75,7.26-28.96,13.92-4.53,3.35-8.74,7.19-12.99,11.33-4.3,4.13-8.31,8.63-12.18,13.36-8.01,9.42-15.12,19.77-22.56,30.02-7.02,10.27-14.47,20.47-21.96,29.62-2.39,2.86-3.41,8.02-3.01,12.73h-.15c.07,3.98,1.12,7.95,3.1,10.33,15.03,18.39,28.5,40.94,44.2,59.87,7.66,9.51,16.25,18.02,25.02,24.82,9.16,6.71,18.54,11.72,28.88,14.08,17.06,3.87,31.74-.54,45.14-7.92,13.38-7.45,25.43-17.83,37.27-27.75,5.59,19.61,13.23,38.68,23.2,56.52-15.27,1.21-31.2,2.34-46.04,6.51-14.72,4.18-28.3,11.41-37.54,26.07-11.49,17.93-13.15,41.03-11.05,65.55,2.03,24.57,8.52,49.84,10.68,73.65.34,3.72,3.29,8.1,6.91,11.15l-.1.1c2.87,2.78,6.42,4.85,9.51,5.14,11.82,1.24,24.24,3.28,36.48,5.62,12.47,2.07,24.84,4.36,37.12,5.44,24.46,2.31,47.64.65,65.6-10.67,14.75-9.23,22.02-22.7,26.3-37.43,4.26-14.83,5.41-30.62,6.76-45.99,17.77,10.07,36.77,17.89,56.37,23.53-10,11.84-20.41,23.7-27.96,37.12-7.46,13.37-11.95,28.02-8.16,45.06,2.27,10.47,7.26,19.75,13.92,28.96,3.35,4.53,7.19,8.74,11.33,12.99,4.13,4.3,8.63,8.31,13.36,12.18,9.42,8.01,19.77,15.12,30.02,22.56,10.27,7.02,20.47,14.47,29.62,21.96,2.86,2.39,8.02,3.41,12.73,3.01v.15c3.98-.07,7.95-1.12,10.33-3.1,18.39-15.03,40.94-28.5,59.87-44.2,9.51-7.66,18.02-16.25,24.82-25.02,6.71-9.16,11.72-18.54,14.08-28.88,3.87-17.06-.54-31.74-7.92-45.14-7.45-13.38-17.83-25.43-27.75-37.27,19.61-5.59,38.68-13.23,56.52-23.2,1.21,15.27,2.34,31.2,6.51,46.04,4.18,14.71,11.41,28.3,26.07,37.54,17.93,11.49,41.03,13.16,65.55,11.05,24.57-2.03,49.84-8.52,73.65-10.68,3.72-.34,8.1-3.29,11.15-6.91l-18.15-18.15-.59,2.66c-16.55,2.77-33.06,6.95-49.53,9.52-8.21,1.32-16.29,2.35-24.33,2.58-3.99.15-7.92.18-11.78.02-3.93-.25-7.77-.67-11.53-1.29-11.11-1.76-19.51-6.1-25.83-11.71-6.31-5.62-10.6-12.59-13.71-20.28-3.1-7.69-5.04-16.09-6.5-24.66-1.46-8.59-2.59-17.58-3.66-26.18,2.81-1.71,5.47-3.66,8.15-5.57,2.66-1.94,5.43-3.73,7.97-5.83,4.54,11.98,11.78,22.9,23.8,28.95,6.72,3.35,15.3,5.24,23.62,4.21,4.17-.48,8.44-1.48,12.39-3.24,3.89-1.81,7.57-4.26,10.79-7.34l1.27-1.32-.06-.06.11.11c6.17-6.43,9.85-14.66,10.67-23.15,1.03-8.34-.7-16.84-4.08-23.64-6.01-12.08-16.89-19.37-28.82-23.96,2.09-2.55,4.01-5.22,5.89-7.92,1.86-2.72,3.93-5.29,5.63-8.11,8.6,1.12,17.48,2.23,26.17,3.8,8.57,1.5,16.93,3.47,24.6,6.61,7.66,3.15,14.61,7.47,20.2,13.82,2.79,3.18,5.26,6.87,7.26,11.18,1.93,4.26,3.4,9.13,4.31,14.73,1.3,7.6,1.49,15.34,1.15,23.32-.23,8.07-1.42,16.06-2.7,24.32-1.26,8.28-3.19,16.35-4.8,24.73-1.78,8.23-3.62,16.42-4.97,24.77l17.2,17.2c2.78-2.87,4.85-6.42,5.14-9.51,1.24-11.82,3.28-24.24,5.62-36.48,2.07-12.47,4.36-24.84,5.45-37.12,2.31-24.46.65-47.64-10.67-65.6-9.23-14.75-22.7-22.02-37.43-26.3-14.83-4.26-30.62-5.41-45.99-6.76,10.07-17.77,17.89-36.77,23.53-56.37,11.84,10,23.7,20.41,37.12,27.96,13.37,7.46,28.02,11.95,45.06,8.16,10.48-2.27,19.75-7.26,28.96-13.92,4.53-3.35,8.74-7.19,12.99-11.33,4.3-4.13,8.31-8.63,12.18-13.36,8.01-9.42,15.12-19.77,22.56-30.02,7.02-10.27,14.47-20.47,21.96-29.62,2.39-2.86,3.41-8.02,3.01-12.73h.15ZM711.46,427.59h.02c6.79-3.69,17.51-5.91,26.76-4.22,9.36,1.64,16.84,7.57,17.11,19.27h-.14c.03.58.11,1.11.1,1.72-.14,5.8-2.09,10.23-5.14,13.35-3.14,3.13-7.45,4.96-12.06,5.79-9.25,1.65-19.97-.62-26.74-4.33h-.02c.42-5.5.33-11.03.56-16.53-.17-5.01-.2-10.04-.44-15.04ZM594.95,191.89c1.5-8.57,3.47-16.93,6.61-24.6,3.15-7.66,7.47-14.61,13.82-20.2,3.18-2.79,6.87-5.26,11.18-7.26,4.26-1.93,9.13-3.4,14.73-4.31,7.6-1.3,15.33-1.49,23.32-1.14,8.07.23,16.06,1.42,24.32,2.7,8.28,1.26,16.35,3.19,24.73,4.8,8.23,1.78,16.42,3.62,24.77,4.97l-1.06,1.06,2.66.59c2.77,16.55,6.95,33.06,9.52,49.53,1.32,8.21,2.35,16.29,2.58,24.33.15,3.99.18,7.92.02,11.78-.25,3.93-.67,7.77-1.29,11.53-1.76,11.11-6.1,19.51-11.71,25.83-5.62,6.31-12.59,10.6-20.28,13.71-7.69,3.1-16.09,5.04-24.66,6.5-8.59,1.46-17.58,2.59-26.18,3.66-1.71-2.81-3.66-5.47-5.57-8.15-1.94-2.66-3.73-5.43-5.83-7.97,11.98-4.54,22.9-11.78,28.95-23.8,3.35-6.72,5.24-15.3,4.21-23.62-.48-4.17-1.48-8.44-3.24-12.39-1.81-3.89-4.26-7.57-7.34-10.79l-1.32-1.27.06-.06c-6.43-6.17-14.66-9.85-23.15-10.67-8.34-1.03-16.84.7-23.64,4.08-12.08,6.01-19.37,16.89-23.96,28.82-2.55-2.09-5.22-4.01-7.92-5.89-2.72-1.86-5.29-3.93-8.11-5.63,1.13-8.6,2.23-17.48,3.8-26.17ZM622.08,241.95v-.03c2.22-7.42,8.23-16.58,15.95-21.92,3.85-2.65,8.22-4.41,12.62-4.35,4.37.07,8.89,1.85,13.1,5.86l-.1.1c.43.39.87.71,1.29,1.15,4,4.2,5.77,8.69,5.81,13.07-.06,4.47-1.76,8.77-4.45,12.62-5.37,7.69-14.56,13.67-21.99,15.85h-.02c-3.53-4.22-7.54-8.01-11.26-12.06-3.67-3.41-7.19-6.99-10.95-10.29ZM360.29,135.51c-6.34-15.23-7.61-32.09,5.64-50.57,4.46-6.27,9.83-11.76,15.71-17.3,5.89-5.47,12.39-10.28,19.14-15.28,6.76-4.81,13.82-9.31,20.88-14.07,7.06-4.47,14.14-9.04,20.98-13.97v1.5l2.29-1.46c6.81,4.97,13.87,9.43,20.9,14.08,7.04,4.81,14.08,9.19,20.81,14.17,13.47,9.76,25.79,20.33,34.67,32.77,13.15,18.43,11.75,35.44,5.34,50.58-6.5,15.09-18.19,29.41-28.76,43.1-3.22-.67-6.47-1.17-9.71-1.78-3.23-.65-6.49-1.1-9.76-1.47,5.25-11.65,7.85-24.5,3.63-37.31-2.38-7.23-7.13-14.48-13.73-19.67-3.29-2.6-7.01-5.01-11.05-6.46-4.03-1.47-8.36-2.35-12.81-2.46l-1.83.03v-.08c-8.9.25-17.31,3.35-23.9,8.82-3.3,2.65-6.17,5.7-8.51,8.98-2.32,3.4-4.12,7-5.33,10.61-4.29,12.83-1.76,25.68,3.42,37.34-6.56.67-13,2.02-19.49,3.12-10.49-13.69-22.12-28.15-28.54-43.25ZM444.36,129.96c5.8.14,10.23,2.09,13.35,5.14,3.13,3.14,4.96,7.45,5.79,12.06,1.65,9.25-.62,19.97-4.33,26.74v.03c-5.5-.42-11.03-.33-16.53-.56-5.01.17-10.04.2-15.04.44v-.03c-3.69-6.79-5.91-17.51-4.22-26.76,1.64-9.36,7.57-16.84,19.27-17.11v.14c.58-.03,1.11-.11,1.72-.1ZM173.82,457.68h-.02c-6.79,3.69-17.51,5.91-26.76,4.22-9.36-1.64-16.84-7.57-17.11-19.27h.14c-.03-.58-.11-1.11-.1-1.72.14-5.8,2.09-10.23,5.14-13.35,3.14-3.13,7.45-4.96,12.06-5.79,9.25-1.65,19.97.62,26.74,4.33h.02c-.42,5.5-.33,11.03-.56,16.53.17,5.01.2,10.04.44,15.04ZM135.51,524.98c-15.23,6.34-32.09,7.61-50.57-5.64-6.27-4.46-11.76-9.83-17.3-15.71-5.47-5.89-10.28-12.39-15.28-19.14-4.81-6.76-9.31-13.82-14.07-20.88-4.47-7.06-9.04-14.14-13.97-20.98h1.5l-1.46-2.29c4.97-6.81,9.43-13.86,14.08-20.9,4.81-7.04,9.19-14.08,14.17-20.81,9.76-13.47,20.33-25.79,32.77-34.67,18.43-13.15,35.44-11.75,50.58-5.34,15.09,6.5,29.41,18.19,43.1,28.76-.67,3.22-1.17,6.47-1.78,9.71-.65,3.23-1.1,6.49-1.47,9.76-11.65-5.25-24.5-7.85-37.31-3.63-7.23,2.38-14.48,7.13-19.67,13.73-2.6,3.29-5.01,7.01-6.46,11.05-1.47,4.03-2.35,8.36-2.46,12.81l.04,1.83h-.08c.25,8.9,3.35,17.31,8.82,23.9,2.65,3.3,5.7,6.17,8.98,8.51,3.4,2.32,7,4.12,10.61,5.33,12.83,4.29,25.68,1.76,37.34-3.42.67,6.56,2.02,13,3.12,19.49-13.69,10.49-28.15,22.12-43.25,28.54ZM290.33,693.39c-1.5,8.57-3.46,16.93-6.61,24.6-3.15,7.66-7.47,14.61-13.82,20.2-3.18,2.79-6.87,5.26-11.18,7.26-4.26,1.93-9.13,3.4-14.73,4.31-7.59,1.3-15.33,1.49-23.32,1.15-8.07-.23-16.06-1.42-24.32-2.7-8.28-1.26-16.35-3.19-24.73-4.8-8.23-1.77-16.43-3.62-24.77-4.97l1.06-1.06-2.66-.59c-2.77-16.55-6.95-33.06-9.52-49.53-1.32-8.21-2.35-16.28-2.58-24.33-.15-3.99-.18-7.92-.02-11.78.25-3.93.67-7.77,1.29-11.53,1.76-11.11,6.1-19.51,11.71-25.83,5.62-6.31,12.59-10.6,20.28-13.71,7.69-3.1,16.09-5.04,24.66-6.5,8.59-1.46,17.58-2.59,26.18-3.66,1.71,2.81,3.66,5.47,5.57,8.15,1.94,2.66,3.73,5.43,5.83,7.97-11.98,4.54-22.9,11.78-28.95,23.8-3.35,6.72-5.24,15.3-4.21,23.62.48,4.17,1.48,8.44,3.24,12.39,1.81,3.89,4.26,7.57,7.34,10.79l1.32,1.27-.06.06c6.43,6.17,14.66,9.85,23.15,10.67,8.34,1.03,16.84-.7,23.64-4.08,12.08-6.01,19.37-16.89,23.96-28.82,2.55,2.09,5.22,4.01,7.92,5.89,2.72,1.86,5.29,3.93,8.11,5.63-1.13,8.6-2.23,17.48-3.8,26.17ZM263.19,643.33v.02c-2.22,7.42-8.23,16.58-15.95,21.92-3.85,2.65-8.22,4.41-12.62,4.35-4.38-.07-8.89-1.84-13.1-5.86l-14.05,14.05,14.15-14.15c-.43-.39-.87-.71-1.29-1.15-4-4.2-5.77-8.69-5.81-13.07.06-4.47,1.76-8.77,4.45-12.62,5.37-7.69,14.56-13.67,21.99-15.85h.02c3.53,4.22,7.54,8.01,11.26,12.06,3.67,3.41,7.19,6.99,10.95,10.29ZM524.98,749.76c6.34,15.23,7.61,32.09-5.64,50.57-4.46,6.27-9.83,11.76-15.71,17.3-5.89,5.47-12.39,10.28-19.14,15.28-6.76,4.81-13.82,9.31-20.88,14.07-7.06,4.47-14.14,9.04-20.98,13.97v-1.5l-2.29,1.46c-6.81-4.97-13.87-9.43-20.9-14.08-7.04-4.81-14.08-9.19-20.81-14.17-13.47-9.76-25.79-20.33-34.67-32.77-13.15-18.43-11.75-35.44-5.34-50.58,6.5-15.09,18.19-29.41,28.76-43.1,3.22.67,6.47,1.17,9.71,1.78,3.23.65,6.49,1.1,9.76,1.47-5.25,11.65-7.85,24.5-3.63,37.31,2.38,7.23,7.13,14.48,13.73,19.67,3.29,2.6,7.01,5.01,11.05,6.46,4.03,1.47,8.36,2.35,12.81,2.46l1.83-.04v.08c8.9-.25,17.31-3.35,23.9-8.82,3.3-2.65,6.17-5.7,8.51-8.98,2.32-3.4,4.12-7,5.33-10.61,4.29-12.83,1.76-25.68-3.42-37.34,6.56-.67,13-2.02,19.49-3.12,10.49,13.69,22.12,28.15,28.54,43.25ZM440.92,755.31c-5.8-.14-10.23-2.09-13.35-5.14-3.13-3.14-4.96-7.45-5.79-12.06-1.65-9.25.62-19.97,4.33-26.75v-.02c5.5.42,11.03.33,16.53.56,5.01-.17,10.04-.2,15.04-.44v.02c3.69,6.79,5.91,17.51,4.22,26.76-1.64,9.36-7.57,16.84-19.27,17.11v-.14c-.58.03-1.11.11-1.72.1ZM665.27,638.03c2.65,3.85,4.41,8.22,4.35,12.62-.07,4.38-1.84,8.89-5.86,13.1l-.1-.1c-.39.43-.71.87-1.15,1.29-4.2,4-8.69,5.77-13.07,5.81-4.47-.06-8.77-1.76-12.62-4.45-7.69-5.37-13.67-14.56-15.85-21.99v-.03c4.22-3.53,8.01-7.54,12.06-11.26,3.41-3.67,6.99-7.19,10.29-10.95h.02c7.42,2.22,16.58,8.23,21.92,15.95ZM673.16,538.1c-12.47,30.13-30.99,57.81-54.12,80.94-23.13,23.13-50.81,41.65-80.94,54.12-30.13,12.51-62.65,18.92-95.46,18.95-32.81-.03-65.33-6.44-95.46-18.95-30.13-12.47-57.81-30.99-80.94-54.12-23.13-23.13-41.65-50.81-54.12-80.94-12.51-30.13-18.92-62.65-18.95-95.46.03-32.81,6.44-65.33,18.95-95.46,12.47-30.13,30.99-57.81,54.12-80.94,23.13-23.13,50.81-41.65,80.94-54.12,30.13-12.51,62.65-18.92,95.46-18.95,32.81.03,65.33,6.44,95.46,18.95,30.13,12.47,57.81,30.99,80.94,54.12,23.13,23.13,41.65,50.81,54.12,80.94,12.51,30.13,18.92,62.65,18.95,95.46-.03,32.81-6.44,65.33-18.95,95.46ZM860.91,444.93c-4.97,6.81-9.43,13.87-14.08,20.9-4.81,7.04-9.19,14.08-14.17,20.81-9.76,13.47-20.33,25.79-32.77,34.67-18.43,13.15-35.44,11.75-50.58,5.34-15.09-6.5-29.41-18.19-43.1-28.76.67-3.22,1.17-6.47,1.78-9.71.65-3.23,1.1-6.49,1.47-9.76,11.65,5.25,24.5,7.85,37.31,3.63,7.23-2.38,14.48-7.13,19.67-13.73,2.6-3.29,5.01-7.01,6.46-11.05,1.47-4.03,2.35-8.36,2.46-12.81l-.03-1.83h.08c-.25-8.9-3.35-17.31-8.82-23.9-2.65-3.3-5.7-6.17-8.98-8.51-3.4-2.33-7-4.12-10.61-5.33-12.83-4.29-25.68-1.76-37.34,3.42-.67-6.56-2.02-13-3.12-19.49,13.69-10.49,28.15-22.12,43.25-28.54,15.23-6.34,32.09-7.61,50.57,5.64,6.27,4.46,11.76,9.83,17.3,15.71,5.47,5.89,10.28,12.39,15.28,19.14,4.81,6.76,9.31,13.82,14.07,20.88,4.47,7.06,9.04,14.14,13.97,20.98h-1.5l1.46,2.29Z"/>
</svg>